<svg width="24" height="24" viewBox="0 0 24 24" fill="none" xmlns="http://www.w3.org/2000/svg">
<g id="Logo sherry VF_Simbolo Sherry Negro 1" clip-path="url(#clip0_3157_16856)">
<g id="Group">
<g id="Group_2">
<g id="Group_3">
<path id="Vector" d="M18.4259 11.9693C18.3725 11.9693 18.3191 11.9693 18.2617 11.9734C18.1673 11.6081 17.9087 10.3931 18.0113 8.55424C18.077 7.31874 18.352 6.29667 18.5818 5.63172C19.1195 5.57836 19.6655 5.54962 20.236 5.54141V2.75845C20.236 2.75845 18.7009 2.7133 16.628 3.11145C16.2011 1.81848 14.9903 0.886719 13.5577 0.886719H7.32273V1.44085C7.32273 3.20175 8.75115 4.62607 10.508 4.62607H12.08C11.1688 5.0899 10.2781 5.66866 9.46537 6.38698C6.16521 9.30129 5.26629 11.2387 5.02412 11.994C2.20421 12.2731 0 14.6497 0 17.5435C0 20.622 2.49564 23.1176 5.57414 23.1176C8.65264 23.1176 11.1483 20.622 11.1483 17.5435C11.1483 15.3187 9.843 13.3977 7.95485 12.5029C8.21344 11.8585 9.26834 9.55988 11.7517 8.02884C13.0077 7.25306 14.1898 6.69072 15.3761 6.30078C15.2653 7.01499 15.1257 8.20945 15.1257 9.7487C15.1257 11.5917 15.294 12.507 15.3884 12.8765C13.8656 13.8698 12.8599 15.5896 12.8599 17.5435C12.8599 20.622 15.3556 23.1176 18.4341 23.1176C21.5126 23.1176 24.0082 20.622 24.0082 17.5435C24 14.465 21.5044 11.9693 18.4259 11.9693Z" fill="#CB1D63"/>
</g>
</g>
</g>
</g>
<defs>
<clipPath id="clip0_3157_16856">
<rect width="24" height="22.2268" fill="white" transform="translate(0 0.886719)"/>
</clipPath>
</defs>
</svg>
