<svg width="120" height="88" viewBox="0 0 120 88" fill="none" xmlns="http://www.w3.org/2000/svg">
<g id="Open Doodles - Loving">
<g id="Master/Doodles/Loving">
<path id="Accent" fill-rule="evenodd" clip-rule="evenodd" d="M51.0505 36.7433C49.7578 37.6804 49.9636 39.5242 50.3527 40.8639C50.9258 42.8364 52.0671 44.6625 53.3691 46.2365C55.6789 49.0288 59.6001 52.1642 63.2145 49.7128C66.4334 47.5295 68.4637 43.1242 69.1646 39.4136C69.3811 38.2669 69.6697 36.5583 68.6519 35.6961C67.1473 34.4218 64.4933 34.6536 62.677 34.8177C61.4808 34.9257 60.3266 35.2924 59.1446 35.1203C56.3981 34.72 53.3413 35.0825 51.0505 36.7433Z" fill="#B81058"/>
<path id="Shape" fill-rule="evenodd" clip-rule="evenodd" d="M47.4719 20.506C48.3681 20.4069 49.2801 20.3809 50.1823 20.3954L50.4494 20.4002C51.0677 20.4046 52.9924 20.3488 53.1793 21.0416C53.3086 21.5216 52.6622 21.3899 52.3408 21.4023C51.8555 21.4211 51.369 21.4252 50.8846 21.4603L50.6772 21.4774C50.1533 21.5261 49.0093 21.4796 48.6575 21.9467C48.2796 22.4484 48.9996 23.328 49.2617 23.7814L49.2753 23.8053C50.2844 25.6086 50.9132 27.5454 52.7209 28.7425C54.4292 29.8738 56.6635 30.3639 58.6325 30.8855L59.0894 31.0071C59.7442 31.1848 59.9096 31.283 60.1651 32.0045L60.195 32.0905C60.4567 32.8564 60.553 32.3187 60.7485 31.8104L60.7571 31.7883C61.0473 31.0476 61.6083 31.3805 62.3275 31.4324C63.4212 31.5116 64.6227 31.3781 65.7093 31.1981L65.8391 31.1762C67.9046 30.8241 70.0946 30.3482 71.7312 28.9596C73.4076 27.5375 74.4654 25.465 75.1155 23.3995L74.9791 23.3832C74.4721 23.3248 73.8988 23.2796 73.4521 23.0449C72.7647 22.6839 73.1172 22.1336 73.7482 21.9381C74.7524 21.6269 76.0257 21.7859 77.0415 21.9149C78.3154 22.0768 79.5949 22.1816 80.8759 22.2685L81.2253 22.2917C85.9055 22.5988 90.3729 23.1564 94.8111 24.7585C98.9964 26.2692 102.947 28.4247 106.515 31.077C110.13 33.7637 113.123 37.0036 115.702 40.6818C117.072 42.6351 118.04 44.6385 118.885 46.864C119.267 47.8694 119.533 48.8497 119.681 49.9163C119.828 50.9788 119.637 52.1243 119.872 53.169L119.899 53.2806C120.206 54.4759 119.597 56.0802 119.244 57.2186C118.792 58.6767 118.076 60.0507 117.188 61.2911C113.921 65.8512 108.163 68.149 102.73 68.7261C101.193 68.8894 99.6516 68.9181 98.1069 68.9285C97.5358 68.9324 96.9521 68.9946 96.3837 68.9208C95.8246 68.8482 95.5733 68.5794 95.123 68.3291C94.6072 68.0425 93.8487 68.0069 93.2772 67.8889L92.5883 67.7484C92.053 67.639 91.5195 67.5253 90.9912 67.3799C90.392 67.2149 89.7988 67.0581 89.1943 66.9229L88.9345 66.8663C88.3627 66.7452 87.7252 66.4901 87.1343 66.6437C88.4413 68.6945 89.9221 70.7739 91.6567 72.49C93.1927 74.0101 95.0705 75.2651 96.4394 76.9476C96.7786 77.3645 97.261 78.441 97.8785 78.4758C98.182 78.4929 98.3456 78.1185 98.666 78.2154C99.0142 78.3209 99.0137 78.8639 98.9326 79.1277C98.3915 80.8875 95.1461 81.2827 93.6475 81.1846L93.6026 81.1815C92.4123 81.0936 91.1668 81.0602 89.9962 80.8245C88.93 80.6098 87.9324 80.0817 86.8377 80.0046C84.7059 79.8544 82.8429 81.6552 81.3359 82.9667L81.0072 83.2503C79.5062 84.5407 77.5991 86.1382 75.5628 86.2224C73.1356 86.3229 70.719 85.1685 68.4809 84.3868C66.332 83.6364 64.1116 83.0252 61.9152 82.4051L61.1412 82.1856C58.8279 81.5261 56.4672 80.7501 54.0437 81.2806C52.0646 81.7139 49.9213 82.9175 48.6231 84.4883L48.5514 84.5765C47.9928 85.2731 47.5097 86.094 46.5774 86.3052C45.7229 86.4988 44.91 86.2216 44.3143 85.6057C43.0254 84.273 42.3783 82.4057 41.6912 80.708L41.5694 80.4104C40.6489 78.1889 40.0985 75.928 39.6712 73.5664C39.4346 72.2575 39.2036 70.9471 39.0107 69.6311C38.9232 69.0334 38.843 68.4344 38.7749 67.8342C38.736 67.4909 38.804 66.8597 38.6442 66.5325C38.2984 65.825 37.0823 66.7704 36.5333 67.0275L36.1127 67.2162C35.1835 67.6316 34.2601 68.0334 33.2888 68.3545C32.2154 68.7091 31.152 69.1417 30.0538 69.4085C29.6587 69.5044 29.2151 69.5732 28.8493 69.7633C28.5446 69.9219 28.4362 70.2941 28.1869 70.4238C27.8356 70.6064 27.4759 70.2626 27.1013 70.2321C26.6066 70.1917 26.0585 70.3515 25.5769 70.4518C24.4724 70.6815 23.398 70.9864 22.2656 71.0539C19.9495 71.192 17.6423 70.6329 15.4588 69.9076L15.3354 69.8663C11.1268 68.4532 6.78531 66.7037 4.78482 62.4446C0.935329 54.2496 2.91916 43.569 9.18089 37.1508C15.7042 30.4644 24.3613 25.8232 33.2999 23.3045C37.9071 22.0061 42.7109 21.0326 47.4719 20.506ZM49.2224 47.6231C46.8093 48.3808 44.4232 49.269 42.2599 50.5955C40.4659 51.6957 38.6989 52.8755 36.9486 54.0572L35.4695 55.0569C33.7984 56.1839 31.9891 57.3673 30.1145 58.0838C29.4644 58.3322 28.4135 58.5254 28.0371 59.1857C27.6999 59.7769 27.8891 60.6954 27.8974 61.3415C27.9161 62.822 27.7545 64.3211 27.6824 65.8057L27.67 66.0839C27.6543 66.4681 27.4818 67.4844 27.8211 67.7732C28.1358 68.041 29.0518 67.6814 29.3698 67.5924L29.7188 67.4942C33.4424 66.4418 37.1764 65.2212 40.4099 63.0442C42.2759 61.7877 43.888 60.1951 45.5711 58.7136C46.4865 57.9077 47.5079 57.1868 48.3565 56.3095C48.6654 55.9899 48.9182 55.6368 49.2721 55.3646C49.6094 55.1049 50.0092 54.9715 50.2907 54.6332C50.5314 54.3439 50.825 54.0824 50.9418 53.7118C50.2292 53.7118 48.1592 54.952 47.8013 53.8892C47.4325 52.794 49.4598 51.6111 50.0579 50.9525C49.3621 51.0574 48.6768 51.2185 48.0117 51.448C47.6091 51.5869 46.9526 52.0165 46.5085 52.0031C45.5924 51.9755 45.9326 50.9008 46.2644 50.4259C46.6393 49.8892 47.1539 49.4447 47.6679 49.0281L48.0511 48.72C48.1828 48.6139 49.3342 47.8579 49.2224 47.6231ZM73.3076 46.7444L73.1347 46.5855C72.4018 45.9159 71.4101 45.139 70.3601 45.3826C70.7869 46.4345 71.6427 47.3517 72.4499 48.1413L72.519 48.2087C72.8558 48.5365 73.936 49.2809 73.7078 49.8735C73.3369 50.8358 71.7438 49.8263 71.279 49.5479C70.2328 48.9212 69.1139 48.471 67.9118 48.238C68.6119 49.0709 69.365 49.8646 70.2458 50.5078L70.5376 50.7168C71.0223 51.0704 71.5978 51.5726 70.9974 52.057C69.7137 53.0927 67.427 51.0416 66.1886 50.7153C66.0337 51.4256 66.4138 51.7966 66.9094 52.2717C67.4603 52.7996 68.1354 52.7272 68.6294 53.3511C69.6152 54.596 70.6454 55.765 71.7908 56.875C74.2479 59.2564 76.9992 60.79 80.1218 62.1303C83.3928 63.5345 86.9205 64.4311 90.3883 65.2132L90.6826 65.2798C91.4072 65.451 95.2693 66.4566 95.2897 66.1096L95.332 65.3838C95.4746 62.8758 95.5504 60.2957 94.5705 57.9314C94.1802 56.9893 93.7288 56.6729 92.7254 56.6292L92.6731 56.6272C91.3348 56.5823 90.0487 56.4605 88.7302 56.1961C86.0425 55.6571 83.3399 54.8889 80.8184 53.8032C79.715 53.3281 78.64 52.7537 77.7209 51.9735L77.5961 51.8664C77.1584 51.4864 76.7176 51.052 76.4326 50.5524C76.1554 50.066 76.0781 49.5334 75.7231 49.0825C75.0624 48.2432 74.1089 47.4757 73.3076 46.7444ZM37.9909 36.3007C37.637 35.8957 36.6034 36.3679 36.2007 36.5194L36.1786 36.5276C34.1524 37.2724 31.9881 37.875 30.0718 38.8674C27.5528 40.172 25.1485 41.7173 22.9209 43.47C20.6908 45.2245 18.6331 47.1621 16.8006 49.3295L16.7062 49.4415C15.2226 51.206 13.547 53.4442 13.8185 55.8754C14.0523 57.971 16.0932 58.7349 17.9375 58.9668C19.234 59.1299 20.4077 58.931 21.668 58.6568L22.1734 58.5464C23.4095 58.2784 24.6361 58.0212 25.8355 57.5994C27.3569 57.0642 28.7616 56.2986 30.2044 55.5903C31.5181 54.9453 32.8951 54.4421 34.1955 53.7679L34.2787 53.7253C35.0219 53.3495 36.3035 52.8019 36.5917 51.99C36.7474 51.5513 36.5136 50.9791 36.4875 50.5299C36.4434 49.7728 36.5111 48.9837 36.5578 48.2228L36.5675 48.0602C36.733 45.1517 37.0925 42.2565 37.3913 39.3605L37.4331 38.9429C37.4842 38.4479 37.5502 37.9727 37.7529 37.5L37.773 37.4553C37.9211 37.139 38.2688 36.6188 37.9909 36.3007ZM65.6248 58.6068C66.1406 58.4467 65.509 56.4419 64.988 56.7137C64.4416 56.9986 65.0552 58.7838 65.6248 58.6068ZM56.6595 56.5358L56.6776 56.4723C56.8934 55.7354 56.1023 56.1232 55.8577 56.4306C55.4293 56.9694 55.4729 57.9366 55.9146 58.4608C56.3819 57.9291 56.4748 57.1943 56.6595 56.5358ZM85.3232 38.5721L85.1063 38.5089C84.4575 38.3229 84.0469 38.261 83.7151 39.002C83.4139 39.6742 83.3502 40.4644 83.2419 41.1887L83.2281 41.2789C83.045 42.4489 82.9036 43.6249 82.7152 44.7939L82.6701 45.0685C82.2952 47.3155 81.719 50.0211 82.5826 52.1961C82.9174 53.0392 84.0742 53.1863 84.8742 53.4514L84.9167 53.4657C86.1292 53.8808 87.3757 54.2264 88.6307 54.4873C90.9584 54.9712 93.3373 55.1499 95.7117 55.1696C99.6657 55.2022 104.118 54.6773 106.736 51.3556C107.561 50.3091 106.552 49.0538 105.875 48.2497C105 47.2089 104.06 46.3226 102.969 45.5059C100.817 43.8944 98.4756 42.7505 96.0621 41.5916C93.6215 40.4194 91.2784 39.5925 88.5928 39.1824C87.4924 39.0144 86.3935 38.8846 85.3232 38.5721ZM64.1411 35.95C62.6935 35.9274 61.2294 36.8557 60.3237 37.9265L60.2315 38.0371C59.7645 38.5931 59.5714 38.6655 59.0932 38.0541L59.0104 37.949C58.6069 37.4413 58.1521 36.9429 57.5324 36.7089C56.3581 36.2656 54.7625 36.5599 53.6648 37.0903C52.4561 37.6744 51.7905 38.9412 51.5942 40.2286C51.1312 43.2661 54.1659 46.5742 56.6465 47.9243C57.3639 48.3146 58.1647 48.4913 58.8613 48.9274L58.9992 49.0131C59.5329 49.3401 59.9987 49.555 60.6061 49.1764C61.2234 48.7915 61.8613 48.2836 62.4145 47.8077C63.0431 47.2667 63.8245 46.9138 64.4258 46.3511L64.5997 46.1873C65.6952 45.1479 66.6682 44.0726 67.3381 42.6965C67.573 42.2144 67.7553 41.7791 67.8123 41.2519L67.8137 41.2289C67.8196 41.0581 67.7869 40.2674 67.7874 40.2671C68.5455 39.655 67.8888 38.2809 67.436 37.4716L67.3475 37.3157C67.2365 37.1224 67.044 36.7412 66.8513 36.6192C66.7749 36.5708 66.5943 36.6785 66.4843 36.6268C66.3948 36.5846 66.3451 36.4601 66.2559 36.4189C65.5977 36.1157 64.8718 35.9616 64.1411 35.95ZM46.236 45.4879C46.7775 44.5861 45.0411 44.6024 44.9608 45.3849C44.8672 46.2989 45.9419 45.9776 46.236 45.4879ZM74.9072 44.6568L74.9007 44.6945C74.856 44.9832 74.8187 45.8326 75.2566 45.3634C75.5926 45.0032 74.904 44.6739 74.9072 44.6568ZM45.4541 38.8686C45.1297 38.6329 44.5846 38.732 44.2207 38.7819C43.6084 38.8662 43.5206 39.6189 44.0399 39.8912C44.3447 40.0512 45.0669 40.0029 45.3755 39.8267C45.7662 39.6038 45.8771 39.176 45.4541 38.8686ZM13.5436 27.564C13.2805 28.4137 11.9487 28.9773 11.2845 29.4939C8.96145 31.3011 6.69142 33.1828 4.59125 35.2454C3.54311 36.2748 2.73996 37.5116 1.83937 38.6638L1.69749 38.8444C1.46207 39.1511 1.07055 39.7402 0.639231 39.6819C0.142935 39.615 0.0425977 38.7602 0.0584226 38.3869C0.112631 37.114 1.27526 35.8845 2.10438 35.008C3.03704 34.0223 4.03418 33.0618 5.05253 32.1643C6.17374 31.1763 7.39041 30.3271 8.63031 29.4955C9.84782 28.6791 11.0152 27.7359 12.2813 26.9963L12.3231 26.9727C12.9226 26.6426 13.8607 26.5396 13.5436 27.564ZM77.753 39.1608C77.7614 38.438 76.3245 38.1482 76.3119 38.9922C76.3016 39.678 77.7451 39.8427 77.753 39.1608ZM78.6152 33.0574C78.6836 31.9694 76.1729 32.8378 76.0299 33.4621C75.7269 34.7893 78.5809 33.6029 78.6152 33.0574ZM45.837 31.6912C44.7894 31.6815 46.1676 32.8593 46.5047 33.0075L46.5149 33.0118C46.9019 33.1676 47.4382 33.205 47.3078 32.639C47.1675 32.031 46.3097 31.8743 45.837 31.6912ZM94.7476 19.4938C95.7172 19.5243 96.6634 19.8424 97.5779 20.1376C99.5895 20.7873 101.505 21.6884 103.395 22.6302C106.707 24.2811 109.894 26.2786 112.816 28.5497C113.383 28.9904 113.963 29.3535 114.575 29.7139L114.796 29.8429C115.214 30.0832 115.758 30.3798 115.912 30.8558C116.328 32.1439 114.228 30.851 113.93 30.6661L112.882 30.017C106.875 26.3028 100.848 22.7356 94.0537 20.6006C93.6791 20.4829 93.5627 20.1488 93.7592 19.8176C93.9722 19.4586 94.3873 19.4825 94.7476 19.4938ZM13.2607 22.1896C13.2171 22.5702 12.7973 22.6655 12.4987 22.7859L12.4719 22.7969C11.354 23.2665 10.2082 23.6669 9.09332 24.1443C7.02408 25.0302 5.1238 26.3159 2.96399 26.9883C2.47042 27.1422 2.3976 26.6441 2.52973 26.3051C2.67691 25.9268 3.11894 25.6612 3.43864 25.4423C4.36089 24.8106 5.40683 24.3564 6.43098 23.9175C7.44634 23.4821 8.49177 23.1527 9.53282 22.7878C10.5004 22.4485 11.6233 21.817 12.6624 21.7704L12.8179 21.763C13.0966 21.7526 13.3071 21.7814 13.2607 22.1896ZM56.4258 16.5539L56.5072 16.3668C56.7172 15.8752 57.5388 13.6882 58.1572 13.8119C58.7495 13.9302 57.2574 17.8158 57.1076 18.2453L57.1035 18.2573C56.221 20.8459 55.8054 23.5719 55.8054 26.3068C55.1925 25.7551 54.8207 25.6188 54.7616 24.7184C54.6876 23.5901 54.8636 22.4597 55.0726 21.3542L55.0969 21.2267C55.4014 19.6357 55.7872 18.0443 56.4258 16.5539ZM68.9474 0.739831C70.291 0.758849 71.5554 1.13496 72.8084 1.58037L73.6785 1.89223C74.6511 2.24293 75.63 2.6309 76.4061 3.32394C78.1074 4.84331 78.5506 7.35905 78.8291 9.5114C79.1763 12.1972 78.0206 14.4506 77.048 16.8805C76.1382 19.153 74.4685 20.994 72.4838 22.3969C71.4787 23.1073 70.3714 23.5454 69.2126 23.9252L69.0926 23.9643C67.8712 24.3593 66.6884 24.8884 65.3818 24.8864C63.3975 24.8835 60.857 23.941 60.0117 21.986C59.6321 21.1078 59.9918 20.9405 60.7411 21.4009L60.7717 21.4199C61.8889 22.1218 62.9659 22.8792 64.2714 23.1905C66.8032 23.7945 69.8356 22.8588 72.0556 21.6242C74.2749 20.3899 75.7647 18.5357 76.7604 16.2269C77.765 13.8978 78.1554 11.6026 77.7679 9.09161C77.4397 6.96367 76.7865 5.01995 74.869 3.8648C70.7293 1.37146 65.152 1.57235 61.4707 4.81267C61.0499 5.18284 60.6332 5.54472 60.2049 5.90053L59.8579 6.18599C59.5504 6.44109 59.2304 6.74751 59.2743 7.17264L59.2778 7.19848C59.3493 7.63389 60.1458 9.10166 59.1416 8.63847C58.3106 8.25505 57.859 7.50555 56.8523 7.41277C55.7809 7.31392 54.5029 8.13701 54.1824 9.17294C53.8767 10.1614 54.4218 11.5137 55.2757 12.0807C55.7549 12.3989 56.2777 12.3842 56.8184 12.3681L56.9868 12.3634C57.2847 12.3563 58.1144 12.2595 58.3116 12.5746C58.6605 13.1318 57.4294 13.7174 57.0322 13.8407C56.0654 14.1406 54.9228 13.7877 54.3671 12.9247C53.8021 12.0473 53.4155 11.032 53.3376 9.98677C53.2632 8.98536 53.4905 7.97148 54.0813 7.14924C54.7097 6.27479 55.9906 5.29443 57.1389 5.5982C57.6372 5.73005 58.0377 6.24499 58.5268 6.34282C58.8355 6.40445 58.7056 6.44857 58.9614 6.21973C59.1237 6.07458 59.2772 5.80667 59.4271 5.63457L59.9818 4.99259C60.6634 4.20468 61.3671 3.41945 62.1958 2.79721C64.0871 1.37719 66.601 0.70649 68.9474 0.739831ZM64.4733 20.9244C64.7138 21.2338 65.2795 21.4745 65.255 21.9308C65.2147 22.6842 64.1878 22.5445 63.8454 22.1515C63.4557 21.704 63.4965 20.8747 63.7173 20.3569C63.941 19.8325 64.3519 20.7679 64.4733 20.9244ZM71.0129 16.7898C71.5669 17.6531 70.8917 18.585 70.4537 19.3491C70.0349 20.0797 69.646 20.9056 69.1584 21.5924C68.3491 22.7328 66.5883 21.4992 66.536 20.3272C66.4971 19.4545 67.0972 19.8001 67.5054 20.128L67.5954 20.201C67.9779 20.5076 68.1782 20.5695 68.5984 20.2097C69.4838 19.4511 69.8816 18.1825 70.4937 17.222C70.6151 17.0316 70.835 16.9171 71.0129 16.7898ZM72.5921 17.0674C72.735 17.4849 72.4353 18.5912 73.2684 18.4806C73.7288 18.4195 73.827 17.7589 74.069 17.4706C74.8829 16.5014 74.6334 18.3345 74.4207 18.7933C73.9519 19.8044 72.64 20.5011 71.9893 19.2184C71.7557 18.7576 71.7485 18.1803 71.859 17.6793L71.8713 17.6259C71.9383 17.3466 72.3285 16.2964 72.5921 17.0674ZM97.0454 15.3715C97.7008 15.4206 98.3343 15.7301 98.9559 15.9167C100.791 16.4677 102.496 17.0684 104.209 17.9063L104.427 18.0142C104.744 18.1764 105.795 18.7666 105.053 19.0337C104.518 19.226 103.269 18.4009 102.81 18.2029C100.793 17.333 98.6247 16.8255 96.5125 16.2315C95.5239 15.9534 96.4579 15.3276 97.0454 15.3715ZM65.163 15.09C65.0893 15.5772 64.6313 16.5477 65.1904 16.8962C65.6185 17.1632 66.323 16.6932 66.7482 16.3834L66.9602 16.2269C67.3718 15.9146 68.2045 15.176 68.2383 16.1723C68.2562 16.6983 67.7296 17.3293 67.354 17.6324L67.3016 17.6735C66.482 18.3024 64.8743 18.8323 64.2961 17.6419C63.9743 16.9793 64.1504 16.036 64.3631 15.3683L64.3747 15.3341C64.5687 14.79 65.3374 13.9379 65.163 15.09ZM75.5364 12.2612L75.8266 12.5977C76.1874 13.0226 76.7195 13.7224 76.3552 14.1899C75.8703 14.812 75.0866 13.6945 74.7632 13.3551L74.7502 13.3416C74.4665 13.0515 73.8698 12.2255 74.1243 11.7874C74.4901 11.1578 75.1749 11.8502 75.5364 12.2612ZM70.5491 10.7919C71.6047 11.4796 70.2413 11.9767 69.6246 12.0469L69.4783 12.0614C68.7646 12.1282 67.8928 12.153 67.2562 11.8129C66.2993 11.3017 66.6182 10.5294 67.5458 10.3445C68.4969 10.1551 69.7216 10.2527 70.5491 10.7919ZM56.6876 8.58063L56.8571 8.61425C57.5964 8.76492 58.3864 8.99282 58.6344 9.7866C58.9059 10.6567 58.5257 10.9542 57.7491 10.7731L57.5287 10.7199C56.7993 10.5472 55.8316 10.3371 55.4462 9.67124C54.9457 8.80646 55.9605 8.43933 56.6876 8.58063Z" fill="black"/>
</g>
</g>
</svg>
