<svg width="176" height="158" viewBox="0 0 176 158" fill="none" xmlns="http://www.w3.org/2000/svg">
<path d="M138.407 156.727C127.784 156.727 119.609 151.044 111.697 145.536L110.866 144.967C108.724 143.437 106.451 141.995 104.265 140.552C100.549 138.148 96.7021 135.7 93.2923 132.771C91.1939 139.459 86.7349 145.405 80.6147 149.732C74.2759 154.191 66.5381 156.683 58.8442 156.683C51.7185 156.683 45.0737 154.585 39.5655 150.563L17.2267 135.656C4.68022 127.743 -1.00284 112.749 2.80044 97.4483C6.51628 82.5412 18.1447 72.0931 32.5709 70.6505C32.8332 69.6887 33.5327 68.0712 35.2376 65.2734C37.2922 61.9073 40.2212 57.8417 43.4562 53.7324C48.1775 47.8308 57.2704 37.2516 66.9753 30.8253C65.8824 30.0822 64.7458 29.3827 63.6529 28.6832C54.2977 22.6942 45.4671 17.0111 46.7786 2.6286C46.8223 2.32259 46.9534 2.06029 47.172 1.88543C47.3469 1.71057 47.6092 1.62313 47.8715 1.62313C47.9152 1.62313 47.9589 1.62313 48.0026 1.62313C48.9644 1.71056 50.3633 1.798 52.2431 1.798C54.7349 1.798 57.8824 1.71056 61.2048 1.62313C65.3141 1.49198 69.948 1.36084 74.4507 1.36084C88.0026 1.36084 95.4343 2.58488 98.4944 5.33898L104.265 9.22969C106.844 10.9346 109.38 12.6395 111.959 14.3444C119.347 13.339 124.943 13.2078 127.041 13.2078C127.653 13.2078 127.959 13.2078 127.959 13.2078C128.221 13.2078 128.44 13.2953 128.615 13.4701C128.702 13.5138 128.746 13.5576 128.789 13.6013C128.877 13.645 128.921 13.6887 128.964 13.7324C129.052 13.7761 129.096 13.8199 129.139 13.8636C129.227 13.9073 129.27 13.951 129.314 13.9947C129.402 14.0384 129.445 14.0822 129.489 14.1259C129.576 14.1696 129.62 14.2133 129.664 14.257C129.751 14.3007 129.795 14.3444 129.839 14.3882C129.926 14.4319 129.97 14.4756 130.014 14.5193C130.101 14.563 130.145 14.6067 130.188 14.6505C130.276 14.6942 130.32 14.7379 130.363 14.7816C130.451 14.8253 130.494 14.869 130.538 14.9127C130.626 14.9565 130.669 15.0002 130.713 15.0439C130.8 15.0876 130.844 15.1313 130.888 15.175C130.975 15.2188 131.019 15.2625 131.063 15.3062C131.15 15.3499 131.194 15.3936 131.238 15.4373C131.325 15.4811 131.369 15.5248 131.412 15.5685C131.5 15.6122 131.544 15.6559 131.587 15.6996C131.675 15.7434 131.718 15.7871 131.762 15.8308C131.85 15.8745 131.893 15.9182 131.937 15.9619C132.024 16.0057 132.068 16.0494 132.112 16.0931C132.199 16.1368 132.243 16.1805 132.287 16.2242C132.374 16.2679 132.418 16.3117 132.462 16.3554C132.549 16.3991 132.593 16.4428 132.637 16.4865C132.724 16.5302 132.768 16.574 132.811 16.6177C132.899 16.6614 132.943 16.7051 132.986 16.7488C133.074 16.7925 133.117 16.8362 133.161 16.88C133.249 16.9237 133.292 16.9674 133.336 17.0111C133.423 17.0548 133.467 17.0985 133.511 17.1423C133.598 17.186 133.642 17.2297 133.686 17.2734C133.773 17.3171 133.817 17.3608 133.861 17.4046C133.948 17.4483 133.992 17.492 134.035 17.5357C134.123 17.5794 134.167 17.6231 134.21 17.6669C134.298 17.7106 134.341 17.7543 134.385 17.798C134.473 17.8417 134.516 17.8854 134.56 17.9291C134.647 17.9729 134.691 18.0166 134.735 18.0603C134.822 18.104 134.866 18.1477 134.91 18.1914C134.997 18.2352 135.041 18.2789 135.085 18.3226C135.172 18.3663 135.216 18.41 135.259 18.4537C135.347 18.4974 135.391 18.5412 135.434 18.5849C135.522 18.6286 135.565 18.6723 135.609 18.716C135.697 18.7597 135.74 18.8035 135.784 18.8472C135.871 18.8909 135.915 18.9346 135.959 18.9783C136.046 19.022 136.09 19.0658 136.134 19.1095C136.221 19.1532 136.265 19.1969 136.309 19.2406C136.396 19.2843 136.44 19.3281 136.484 19.3718C136.571 19.4155 136.615 19.4592 136.658 19.5029C136.746 19.5466 136.79 19.5903 136.833 19.6341C136.921 19.6778 136.964 19.7215 137.008 19.7652C137.096 19.8089 137.139 19.8526 137.183 19.8964C137.27 19.9401 137.314 19.9838 137.358 20.0275C137.445 20.0712 137.489 20.1149 137.533 20.1586C137.62 20.2024 137.664 20.2461 137.708 20.2898C137.795 20.3335 137.839 20.3772 137.882 20.4209C137.97 20.4647 138.014 20.5084 138.057 20.5521C138.145 20.5958 138.188 20.6395 138.232 20.6832C138.32 20.727 138.363 20.7707 138.407 20.8144C138.494 20.8581 138.538 20.9018 138.582 20.9455C138.669 20.9893 138.713 21.033 138.757 21.0767C138.844 21.1204 138.888 21.1641 138.932 21.2078C139.019 21.2516 139.063 21.2953 139.106 21.339C139.194 21.3827 139.238 21.4264 139.281 21.4701C139.369 21.5138 139.412 21.5576 139.456 21.6013C139.544 21.645 139.587 21.6887 139.631 21.7324C139.718 21.7761 139.762 21.8199 139.806 21.8636C139.893 21.9073 139.937 21.951 139.981 21.9947C140.068 22.0384 140.112 22.0821 140.156 22.1259C140.243 22.1696 140.287 22.2133 140.33 22.257C140.418 22.3007 140.462 22.3444 140.505 22.3882C140.593 22.4319 140.636 22.4756 140.68 22.5193C140.768 22.563 140.811 22.6067 140.855 22.6505C140.943 22.6942 140.986 22.7379 141.03 22.7816C141.117 22.8253 141.161 22.869 141.205 22.9128C141.292 22.9565 141.336 23.0002 141.38 23.0439C141.467 23.0876 141.511 23.1313 141.555 23.1751C141.642 23.2188 141.686 23.2625 141.729 23.3062C141.817 23.3499 141.861 23.3936 141.904 23.4373C141.992 23.4811 142.035 23.5248 142.079 23.5685C142.167 23.6122 142.21 23.6559 142.254 23.6996C142.341 23.7433 142.385 23.7871 142.429 23.8308C142.516 23.8745 142.56 23.9182 142.604 23.9619C142.691 24.0056 142.735 24.0494 142.779 24.0931C142.866 24.1368 142.91 24.1805 142.953 24.2242C143.041 24.2679 143.085 24.3117 143.128 24.3554C143.216 24.3991 143.259 24.4428 143.303 24.4865C143.391 24.5302 143.434 24.574 143.478 24.6177C143.565 24.6614 143.609 24.7051 143.653 24.7488C143.74 24.7925 143.784 24.8363 143.828 24.88C143.915 24.9237 143.959 24.9674 144.003 25.0111C144.09 25.0548 144.134 25.0985 144.177 25.1423C144.265 25.186 144.309 25.2297 144.352 25.2734C144.44 25.3171 144.483 25.3608 144.527 25.4045C144.615 25.4483 144.658 25.492 144.702 25.5357C144.79 25.5794 144.833 25.6231 144.877 25.6668C144.964 25.7106 145.008 25.7543 145.052 25.798C145.139 25.8417 145.183 25.8854 145.227 25.9291C145.314 25.9729 145.358 26.0166 145.402 26.0603C145.489 26.104 145.533 26.1477 145.576 26.1914C145.664 26.2352 145.708 26.2789 145.751 26.3226C145.795 26.3663 145.882 26.41 145.926 26.4537C146.014 26.4975 146.057 26.5412 146.101 26.5849C146.188 26.6286 146.232 26.6723 146.276 26.716C146.363 26.7597 146.407 26.8035 146.451 26.8472C146.538 26.8909 146.582 26.9346 146.626 26.9783C146.713 27.022 146.757 27.0658 146.8 27.1095C146.888 27.1532 146.932 27.1969 146.975 27.2406C147.063 27.2843 147.106 27.328 147.15 27.3718C147.238 27.4155 147.281 27.4592 147.325 27.5029C147.412 27.5466 147.456 27.5903 147.5 27.6341C147.587 27.6778 147.631 27.7215 147.675 27.7652C147.762 27.8089 147.806 27.8526 147.85 27.8964C147.937 27.9401 147.981 27.9838 148.024 28.0275C148.112 28.0712 148.156 28.1149 148.199 28.1587C148.287 28.2024 148.33 28.2461 148.374 28.2898C148.462 28.3335 148.505 28.3772 148.549 28.421C148.636 28.4647 148.68 28.5084 148.724 28.5521C148.811 28.5958 148.855 28.6395 148.899 28.6832C148.986 28.727 149.03 28.7707 149.074 28.8144C149.161 28.8581 149.205 28.9018 149.249 28.9455C149.336 28.9893 149.38 29.033 149.423 29.0767C149.511 29.1204 149.555 29.1641 149.598 29.2078C149.948 29.3827 150.167 29.7761 150.167 30.1696V47.4373C150.167 48.0494 149.686 48.5302 149.074 48.5302C145.708 48.574 142.604 48.7488 139.587 49.0111C137.096 55.3936 135.522 70.2133 136.484 78.0384C139.369 79.9619 142.254 81.8854 145.139 83.8089C147.762 85.5576 150.341 87.3062 152.964 89.0548C170.757 97.9291 175.434 116.028 172.199 130.06C168.396 146.541 154.932 157.295 137.839 157.47C138.975 156.727 138.669 156.727 138.407 156.727ZM78.6911 90.9783C80.2649 91.9838 81.7513 93.1204 83.1064 94.3007C85.5982 87.1313 90.3633 80.88 96.6583 76.5958C96.2212 74.6286 95.6092 71.0002 95.3469 65.0548C83.4999 73.492 77.7294 84.6832 75.8059 89.0985C76.2431 89.3608 78.6911 90.9783 78.6911 90.9783Z" fill="#463899"/>
<path d="M74.4945 2.49732C84.724 2.49732 94.5601 3.19677 97.8388 6.25688C102.473 9.36071 107.107 12.4645 111.697 15.5246C119.26 14.4755 124.943 14.3443 127.041 14.3443C127.609 14.3443 127.959 14.3443 127.959 14.3443V14.4755C128.09 14.4755 128.134 14.4755 128.134 14.4755V14.6066C128.265 14.6066 128.309 14.6066 128.309 14.6066V14.7378C128.44 14.7378 128.484 14.7378 128.484 14.7378V14.8689C128.615 14.8689 128.658 14.8689 128.658 14.8689V15.0001C128.79 15.0001 128.833 15.0001 128.833 15.0001V15.1312C128.964 15.1312 129.008 15.1312 129.008 15.1312V15.2623C129.139 15.2623 129.183 15.2623 129.183 15.2623V15.3935C129.314 15.3935 129.358 15.3935 129.358 15.3935V15.5246C129.489 15.5246 129.533 15.5246 129.533 15.5246V15.6558C129.664 15.6558 129.708 15.6558 129.708 15.6558V15.7869C129.839 15.7869 129.882 15.7869 129.882 15.7869V15.9181C130.014 15.9181 130.057 15.9181 130.057 15.9181V16.0492C130.188 16.0492 130.232 16.0492 130.232 16.0492V16.1804C130.363 16.1804 130.407 16.1804 130.407 16.1804V16.3115C130.538 16.3115 130.582 16.3115 130.582 16.3115V16.4427C130.713 16.4427 130.757 16.4427 130.757 16.4427V16.5738C130.888 16.5738 130.932 16.5738 130.932 16.5738V16.705C131.063 16.705 131.107 16.705 131.107 16.705V16.8361C131.238 16.8361 131.281 16.8361 131.281 16.8361V16.9673C131.413 16.9673 131.456 16.9673 131.456 16.9673V17.0984C131.587 17.0984 131.631 17.0984 131.631 17.0984V17.2296C131.762 17.2296 131.806 17.2296 131.806 17.2296V17.3607C131.937 17.3607 131.981 17.3607 131.981 17.3607V17.4919C132.112 17.4919 132.156 17.4919 132.156 17.4919V17.623C132.287 17.623 132.331 17.623 132.331 17.623V17.7541C132.462 17.7541 132.505 17.7541 132.505 17.7541V17.8853C132.637 17.8853 132.68 17.8853 132.68 17.8853V18.0164C132.811 18.0164 132.855 18.0164 132.855 18.0164V18.1476C132.986 18.1476 133.03 18.1476 133.03 18.1476V18.2787C133.161 18.2787 133.205 18.2787 133.205 18.2787V18.4099C133.336 18.4099 133.38 18.4099 133.38 18.4099V18.541C133.511 18.541 133.555 18.541 133.555 18.541V18.6722C133.686 18.6722 133.729 18.6722 133.729 18.6722V18.8033C133.861 18.8033 133.904 18.8033 133.904 18.8033V18.9345C134.035 18.9345 134.079 18.9345 134.079 18.9345V19.0656C134.21 19.0656 134.254 19.0656 134.254 19.0656V19.1968C134.385 19.1968 134.429 19.1968 134.429 19.1968V19.3279C134.56 19.3279 134.604 19.3279 134.604 19.3279V19.4591C134.735 19.4591 134.779 19.4591 134.779 19.4591V19.5902C134.91 19.5902 134.954 19.5902 134.954 19.5902V19.7214C135.085 19.7214 135.128 19.7214 135.128 19.7214V19.8525C135.26 19.8525 135.303 19.8525 135.303 19.8525V19.9837C135.434 19.9837 135.478 19.9837 135.478 19.9837V20.1148C135.609 20.1148 135.653 20.1148 135.653 20.1148V20.246C135.784 20.246 135.828 20.246 135.828 20.246V20.3771C135.959 20.3771 136.003 20.3771 136.003 20.3771V20.5082C136.134 20.5082 136.178 20.5082 136.178 20.5082V20.6394C136.309 20.6394 136.352 20.6394 136.352 20.6394V20.7705C136.484 20.7705 136.527 20.7705 136.527 20.7705V20.9017C136.658 20.9017 136.702 20.9017 136.702 20.9017V21.0328C136.833 21.0328 136.877 21.0328 136.877 21.0328V21.164C137.008 21.164 137.052 21.164 137.052 21.164V21.2951C137.183 21.2951 137.227 21.2951 137.227 21.2951V21.4263C137.358 21.4263 137.402 21.4263 137.402 21.4263V21.5574C137.533 21.5574 137.576 21.5574 137.576 21.5574V21.6886C137.708 21.6886 137.751 21.6886 137.751 21.6886V21.8197C137.882 21.8197 137.926 21.8197 137.926 21.8197V21.9509C138.057 21.9509 138.101 21.9509 138.101 21.9509V22.082C138.232 22.082 138.276 22.082 138.276 22.082V22.2132C138.407 22.2132 138.451 22.2132 138.451 22.2132V22.3443C138.582 22.3443 138.626 22.3443 138.626 22.3443V22.4755C138.757 22.4755 138.801 22.4755 138.801 22.4755V22.6066C138.932 22.6066 138.975 22.6066 138.975 22.6066V22.7378C139.107 22.7378 139.15 22.7378 139.15 22.7378V22.8689C139.281 22.8689 139.325 22.8689 139.325 22.8689V23C139.456 23 139.5 23 139.5 23V23.1312C139.631 23.1312 139.675 23.1312 139.675 23.1312V23.2623C139.806 23.2623 139.85 23.2623 139.85 23.2623V23.3935C139.981 23.3935 140.025 23.3935 140.025 23.3935V23.5246C140.156 23.5246 140.199 23.5246 140.199 23.5246V23.6558C140.331 23.6558 140.374 23.6558 140.374 23.6558V23.7869C140.505 23.7869 140.549 23.7869 140.549 23.7869V23.9181C140.68 23.9181 140.724 23.9181 140.724 23.9181V24.0492C140.855 24.0492 140.899 24.0492 140.899 24.0492V24.1804C141.03 24.1804 141.074 24.1804 141.074 24.1804V24.3115C141.205 24.3115 141.249 24.3115 141.249 24.3115V24.4427C141.38 24.4427 141.423 24.4427 141.423 24.4427V24.5738C141.555 24.5738 141.598 24.5738 141.598 24.5738V24.705C141.729 24.705 141.773 24.705 141.773 24.705V24.8361C141.904 24.8361 141.948 24.8361 141.948 24.8361V24.9673C142.079 24.9673 142.123 24.9673 142.123 24.9673V25.0984C142.254 25.0984 142.298 25.0984 142.298 25.0984V25.2296C142.429 25.2296 142.473 25.2296 142.473 25.2296V25.3607C142.604 25.3607 142.648 25.3607 142.648 25.3607V25.4919C142.779 25.4919 142.822 25.4919 142.822 25.4919V25.623C142.954 25.623 142.997 25.623 142.997 25.623V25.7542C143.128 25.7542 143.172 25.7542 143.172 25.7542V25.8853C143.303 25.8853 143.347 25.8853 143.347 25.8853V26.0164C143.478 26.0164 143.522 26.0164 143.522 26.0164V26.1476C143.653 26.1476 143.697 26.1476 143.697 26.1476V26.2787C143.828 26.2787 143.872 26.2787 143.872 26.2787V26.4099C144.003 26.4099 144.046 26.4099 144.046 26.4099V26.541C144.178 26.541 144.221 26.541 144.221 26.541V26.6722C144.352 26.6722 144.396 26.6722 144.396 26.6722V26.8033C144.527 26.8033 144.571 26.8033 144.571 26.8033V26.9345C144.702 26.9345 144.746 26.9345 144.746 26.9345V27.0656C144.877 27.0656 144.921 27.0656 144.921 27.0656V27.1968C145.052 27.1968 145.096 27.1968 145.096 27.1968V27.3279C145.227 27.3279 145.27 27.3279 145.27 27.3279V27.4591C145.402 27.4591 145.445 27.4591 145.445 27.4591V27.5902C145.576 27.5902 145.62 27.5902 145.62 27.5902V27.7214C145.751 27.7214 145.795 27.7214 145.795 27.7214V27.8525C145.926 27.8525 145.97 27.8525 145.97 27.8525V27.9837C146.101 27.9837 146.145 27.9837 146.145 27.9837V28.1148C146.276 28.1148 146.32 28.1148 146.32 28.1148V28.2459C146.451 28.2459 146.495 28.2459 146.495 28.2459V28.3771C146.626 28.3771 146.669 28.3771 146.669 28.3771V28.5082C146.801 28.5082 146.844 28.5082 146.844 28.5082V28.6394C146.975 28.6394 147.019 28.6394 147.019 28.6394V28.7705C147.15 28.7705 147.194 28.7705 147.194 28.7705V28.9017C147.325 28.9017 147.369 28.9017 147.369 28.9017V29.0328C147.5 29.0328 147.544 29.0328 147.544 29.0328V29.164C147.675 29.164 147.719 29.164 147.719 29.164V29.2951C147.85 29.2951 147.893 29.2951 147.893 29.2951V29.4263C148.025 29.4263 148.068 29.4263 148.068 29.4263V29.5574C148.199 29.5574 148.243 29.5574 148.243 29.5574V29.6886C148.374 29.6886 148.418 29.6886 148.418 29.6886V29.8197C148.549 29.8197 148.593 29.8197 148.593 29.8197V29.9509C148.724 29.9509 148.768 29.9509 148.768 29.9509V30.082C148.899 30.082 148.943 30.082 148.943 30.082V30.2132C149.074 30.2132 149.117 30.2132 149.117 30.2132V47.4809C145.576 47.5246 142.21 47.6995 138.888 48.0492C136.134 54.3443 134.342 70.6503 135.522 78.7377C141.161 82.541 146.801 86.3006 152.484 90.0602C185.008 106.235 175.172 156.115 137.926 156.421C137.664 156.421 137.358 156.421 137.096 156.421C126.473 156.421 118.385 150.563 110.167 144.88C103.915 140.421 97.0519 136.792 91.3688 131.634C87.5655 146.716 72.4836 156.421 57.4453 156.421C50.8879 156.421 44.3743 154.585 38.8224 150.519C31.3907 145.536 23.959 140.596 16.5273 135.612C-10.1394 118.825 0.614721 74.8033 32.3087 72.5301C30.9972 70.3443 50.3634 42.3662 67.6748 31.7432C57.9262 23.3061 46.4289 18.7596 47.9153 2.75961C49.0082 2.89076 50.4945 2.93447 52.2869 2.93447C57.8388 2.93447 66.2759 2.49732 74.4945 2.49732ZM83.5874 96.2678C85.9481 88.3115 91.0628 81.4919 97.8825 77.0766C97.4016 75.1968 96.6147 70.9563 96.3524 63C82.4071 72.2241 76.1994 85.2077 74.4508 89.4481C75.6748 90.2787 76.8989 91.0656 78.0792 91.8962C80.0464 93.2077 81.9262 94.6503 83.5874 96.2678ZM74.4945 0.311523C69.9481 0.311523 65.3142 0.442674 61.2486 0.573821C57.9262 0.661253 54.7787 0.748682 52.2869 0.748682C50.4071 0.748682 49.0519 0.704969 48.1339 0.573821C48.0464 0.573821 47.959 0.573821 47.8716 0.573821C47.3907 0.573821 46.8661 0.748687 46.4726 1.0547C46.0355 1.40442 45.7295 1.97273 45.6858 2.54103C45.0737 9.31699 46.6038 14.8689 50.3634 19.5028C53.6858 23.5684 58.2322 26.4973 63.041 29.6011C63.6967 29.9946 64.3087 30.4317 64.9645 30.8252C59.9808 34.3225 52.112 41.011 42.5382 53.0328C39.2595 57.1421 36.3306 61.2951 34.2322 64.6613C32.877 66.847 32.0901 68.4208 31.653 69.6011C24.3961 70.4755 17.7951 73.5356 12.5054 78.4755C7.25954 83.3716 3.49996 89.8416 1.6639 97.1421C-0.172166 104.486 0.0901365 111.962 2.45079 118.781C4.98631 126.169 9.88248 132.333 16.571 136.53L38.7787 151.393C44.418 155.503 51.3251 157.689 58.6694 157.689C66.5819 157.689 74.5382 155.153 81.0956 150.563C86.9535 146.454 91.3251 140.858 93.6858 134.563C96.8333 137.098 100.243 139.284 103.566 141.426C105.751 142.825 107.981 144.268 110.123 145.798C110.123 145.798 110.123 145.798 110.167 145.798L110.997 146.366C119.041 151.962 127.391 157.732 138.363 157.732C138.669 157.732 138.932 157.732 139.238 157.732C148.331 157.645 156.549 154.716 162.932 149.208C168.702 144.268 172.855 137.23 174.648 129.492C176.484 121.536 175.784 113.098 172.637 105.798C169.183 97.7979 163.063 91.3716 154.888 87.2623C152.352 85.5574 149.773 83.8525 147.238 82.1476C144.44 80.2678 141.686 78.4317 138.888 76.552C138.101 69.1203 139.5 55.5246 141.729 49.1858C144.527 48.9673 147.413 48.7924 150.473 48.7924C151.653 48.7924 152.615 47.7869 152.615 46.6066V29.4263C152.615 28.6394 152.178 27.9399 151.566 27.5465C151.522 27.5028 151.434 27.4591 151.391 27.4153C151.347 27.3716 151.26 27.3279 151.216 27.2842C151.172 27.2405 151.085 27.1968 151.041 27.1531C150.997 27.1093 150.91 27.0656 150.866 27.0219C150.822 26.9782 150.735 26.9345 150.691 26.8908C150.648 26.847 150.56 26.8033 150.516 26.7596C150.473 26.7159 150.385 26.6722 150.342 26.6285C150.298 26.5848 150.21 26.541 150.167 26.4973C150.123 26.4536 150.035 26.4099 149.992 26.3662C149.948 26.3225 149.861 26.2787 149.817 26.235C149.773 26.1913 149.686 26.1476 149.642 26.1039C149.598 26.0602 149.511 26.0164 149.467 25.9727C149.423 25.929 149.336 25.8853 149.292 25.8416C149.249 25.7979 149.161 25.7541 149.117 25.7104C149.074 25.6667 148.986 25.623 148.943 25.5793C148.899 25.5356 148.811 25.4919 148.768 25.4481C148.724 25.4044 148.637 25.3607 148.593 25.317C148.549 25.2733 148.462 25.2296 148.418 25.1858C148.374 25.1421 148.287 25.0984 148.243 25.0547C148.199 25.011 148.112 24.9673 148.068 24.9236C148.025 24.8798 147.937 24.8361 147.893 24.7924C147.85 24.7487 147.762 24.705 147.719 24.6613C147.675 24.6175 147.587 24.5738 147.544 24.5301C147.5 24.4864 147.413 24.4427 147.369 24.399C147.325 24.3552 147.238 24.3115 147.194 24.2678C147.15 24.2241 147.063 24.1804 147.019 24.1367C146.975 24.0929 146.888 24.0492 146.844 24.0055C146.801 23.9618 146.713 23.9181 146.669 23.8744C146.626 23.8306 146.538 23.7869 146.495 23.7432C146.451 23.6995 146.363 23.6558 146.32 23.6121C146.276 23.5684 146.188 23.5246 146.145 23.4809C146.101 23.4372 146.014 23.3935 145.97 23.3498C145.926 23.3061 145.839 23.2623 145.795 23.2186C145.751 23.1749 145.664 23.1312 145.62 23.0875C145.576 23.0438 145.489 23.0001 145.445 22.9563C145.402 22.9126 145.314 22.8689 145.27 22.8252C145.227 22.7815 145.139 22.7378 145.096 22.694C145.052 22.6503 144.964 22.6066 144.921 22.5629C144.877 22.5192 144.79 22.4755 144.746 22.4317C144.702 22.388 144.615 22.3443 144.571 22.3006C144.527 22.2569 144.44 22.2132 144.396 22.1694C144.352 22.1257 144.265 22.082 144.221 22.0383C144.178 21.9946 144.09 21.9509 144.046 21.9071C144.003 21.8634 143.915 21.8197 143.872 21.776C143.828 21.7323 143.74 21.6886 143.697 21.6449C143.653 21.6011 143.566 21.5574 143.522 21.5137C143.478 21.47 143.391 21.4263 143.347 21.3826C143.303 21.3389 143.216 21.2951 143.172 21.2514C143.128 21.2077 143.041 21.164 142.997 21.1203C142.954 21.0766 142.866 21.0328 142.822 20.9891C142.779 20.9454 142.691 20.9017 142.648 20.858C142.604 20.8143 142.516 20.7705 142.473 20.7268C142.429 20.6831 142.342 20.6394 142.298 20.5957C142.254 20.552 142.167 20.5082 142.123 20.4645C142.079 20.4208 141.992 20.3771 141.948 20.3334C141.904 20.2897 141.817 20.2459 141.773 20.2022C141.729 20.1585 141.642 20.1148 141.598 20.0711C141.555 20.0274 141.467 19.9837 141.423 19.9399C141.38 19.8962 141.292 19.8525 141.249 19.8088C141.205 19.7651 141.117 19.7214 141.074 19.6777C141.03 19.6339 140.943 19.5902 140.899 19.5465C140.855 19.5028 140.768 19.4591 140.724 19.4154C140.68 19.3716 140.593 19.3279 140.549 19.2842C140.505 19.2405 140.418 19.1968 140.374 19.1531C140.331 19.1093 140.243 19.0656 140.199 19.0219C140.156 18.9782 140.068 18.9345 140.025 18.8908C139.981 18.847 139.893 18.8033 139.85 18.7596C139.806 18.7159 139.719 18.6722 139.675 18.6285C139.631 18.5847 139.544 18.541 139.5 18.4973C139.456 18.4536 139.369 18.4099 139.325 18.3662C139.281 18.3225 139.194 18.2787 139.15 18.235C139.107 18.1913 139.019 18.1476 138.975 18.1039C138.932 18.0602 138.844 18.0164 138.801 17.9727C138.757 17.929 138.669 17.8853 138.626 17.8416C138.582 17.7979 138.495 17.7542 138.451 17.7104C138.407 17.6667 138.32 17.623 138.276 17.5793C138.232 17.5356 138.145 17.4919 138.101 17.4481C138.057 17.4044 137.97 17.3607 137.926 17.317C137.882 17.2733 137.795 17.2296 137.751 17.1858C137.708 17.1421 137.62 17.0984 137.576 17.0547C137.533 17.011 137.445 16.9673 137.402 16.9235C137.358 16.8798 137.27 16.8361 137.227 16.7924C137.183 16.7487 137.096 16.705 137.052 16.6612C137.008 16.6175 136.921 16.5738 136.877 16.5301C136.833 16.4864 136.746 16.4427 136.702 16.399C136.658 16.3552 136.571 16.3115 136.527 16.2678C136.484 16.2241 136.396 16.1804 136.352 16.1367C136.309 16.0929 136.221 16.0492 136.178 16.0055C136.134 15.9618 136.046 15.9181 136.003 15.8744C135.959 15.8307 135.872 15.7869 135.828 15.7432C135.784 15.6995 135.697 15.6558 135.653 15.6121C135.609 15.5684 135.522 15.5246 135.478 15.4809C135.434 15.4372 135.347 15.3935 135.303 15.3498C135.26 15.3061 135.172 15.2623 135.128 15.2186C135.085 15.1749 134.997 15.1312 134.954 15.0875C134.91 15.0438 134.822 15 134.779 14.9563C134.735 14.9126 134.648 14.8689 134.604 14.8252C134.56 14.7815 134.473 14.7378 134.429 14.694C134.385 14.6503 134.298 14.6066 134.254 14.5629C134.21 14.5192 134.123 14.4755 134.079 14.4318C134.035 14.388 133.948 14.3443 133.904 14.3006C133.861 14.2569 133.773 14.2132 133.729 14.1695C133.686 14.1257 133.598 14.082 133.555 14.0383C133.511 13.9946 133.423 13.9509 133.38 13.9072C133.336 13.8634 133.249 13.8197 133.205 13.776C133.161 13.7323 133.074 13.6886 133.03 13.6449C132.986 13.6011 132.899 13.5574 132.855 13.5137C132.811 13.47 132.724 13.4263 132.68 13.3826C132.637 13.3388 132.549 13.2951 132.505 13.2514C132.462 13.2077 132.374 13.164 132.331 13.1203C132.287 13.0766 132.199 13.0328 132.156 12.9891C132.112 12.9454 132.025 12.9017 131.981 12.858C131.937 12.8143 131.85 12.7705 131.806 12.7268C131.762 12.6831 131.675 12.6394 131.631 12.5957C131.587 12.552 131.5 12.5083 131.456 12.4645C131.413 12.4208 131.325 12.3771 131.281 12.3334C131.238 12.2897 131.15 12.246 131.107 12.2022C131.063 12.1585 130.975 12.1148 130.932 12.0711C130.888 12.0274 130.801 11.9837 130.757 11.9399C130.713 11.8962 130.626 11.8525 130.582 11.8088C130.232 11.5465 129.795 11.3716 129.358 11.3716C129.358 11.3716 129.008 11.3716 128.396 11.3716C126.342 11.3716 120.833 11.4591 113.576 12.4645C111.128 10.8471 108.68 9.18584 106.276 7.56836C104.352 6.3006 102.473 4.98913 100.549 3.72137C95.8716 1.62301 88.265 0.311523 74.4945 0.311523ZM77.1612 88.6613C79.2595 84.1585 84.4617 74.7159 94.3415 67.1093C94.6038 71.3498 95.0409 74.2787 95.4344 76.1148C89.6639 80.2241 85.2049 85.9509 82.5819 92.4645C81.5328 91.6339 80.4399 90.8033 79.2595 90.0602C78.7786 89.7104 78.2541 89.4044 77.7295 89.0547C77.5546 88.9235 77.3798 88.7924 77.1612 88.6613Z" fill="#463899"/>
<path d="M120.046 71.3495C119.697 71.3495 119.391 71.3495 119.041 71.3495C118.473 69.0763 116.855 61.5571 117.467 50.1473C117.904 42.497 119.566 36.1582 121.008 32.0052C124.331 31.6992 127.74 31.5244 131.238 31.4369V14.1692C131.238 14.1692 121.708 13.9069 108.855 16.355C106.232 8.35496 98.7131 2.58447 89.8388 2.58447H51.194V6.03802C51.194 16.967 60.0245 25.7976 70.9535 25.7976H80.7021C75.0628 28.6828 69.5546 32.2675 64.4836 36.7266C44.0246 54.7812 38.4289 66.8031 36.9426 71.4807C19.4562 73.1856 5.81689 87.9178 5.81689 105.841C5.81689 124.901 21.2923 140.377 40.3524 140.377C59.4125 140.377 74.8879 124.901 74.8879 105.841C74.8879 92.0271 66.8005 80.1364 55.0847 74.5845C56.6584 70.6063 63.2158 56.355 78.6038 46.8249C86.3852 42.0162 93.7295 38.5189 101.074 36.1145C100.374 40.5298 99.5437 47.9615 99.5437 57.4916C99.5437 68.9451 100.593 74.5845 101.161 76.9014C91.7186 83.0653 85.4672 93.732 85.4672 105.841C85.4672 124.901 100.943 140.377 120.003 140.377C139.063 140.377 154.538 124.901 154.538 105.841C154.626 86.8249 139.15 71.3495 120.046 71.3495Z" fill="white"/>
</svg>
