<svg width="400" height="400" viewBox="0 0 400 400" fill="none" xmlns="http://www.w3.org/2000/svg">
<rect width="400" height="400" fill="#B81058" style="fill:#B81058;fill:color(display-p3 0.7216 0.0627 0.3451);fill-opacity:1;"/>
<path d="M250.407 277.727C239.784 277.727 231.609 272.044 223.697 266.536L222.866 265.967C220.724 264.437 218.451 262.995 216.265 261.552C212.549 259.148 208.702 256.7 205.292 253.771C203.194 260.459 198.735 266.405 192.615 270.732C186.276 275.191 178.538 277.683 170.844 277.683C163.718 277.683 157.074 275.585 151.565 271.563L129.227 256.656C116.68 248.743 110.997 233.749 114.8 218.448C118.516 203.541 130.145 193.093 144.571 191.65C144.833 190.689 145.533 189.071 147.238 186.273C149.292 182.907 152.221 178.842 155.456 174.732C160.177 168.831 169.27 158.252 178.975 151.825C177.882 151.082 176.746 150.383 175.653 149.683C166.298 143.694 157.467 138.011 158.779 123.629C158.822 123.323 158.953 123.06 159.172 122.885C159.347 122.711 159.609 122.623 159.871 122.623C159.915 122.623 159.959 122.623 160.003 122.623C160.964 122.711 162.363 122.798 164.243 122.798C166.735 122.798 169.882 122.711 173.205 122.623C177.314 122.492 181.948 122.361 186.451 122.361C200.003 122.361 207.434 123.585 210.494 126.339L216.265 130.23C218.844 131.935 221.38 133.64 223.959 135.344C231.347 134.339 236.943 134.208 239.041 134.208C239.653 134.208 239.959 134.208 239.959 134.208C240.221 134.208 240.44 134.295 240.615 134.47C240.702 134.514 240.746 134.558 240.789 134.601C240.877 134.645 240.921 134.689 240.964 134.732C241.052 134.776 241.096 134.82 241.139 134.864C241.227 134.907 241.27 134.951 241.314 134.995C241.402 135.038 241.445 135.082 241.489 135.126C241.576 135.17 241.62 135.213 241.664 135.257C241.751 135.301 241.795 135.344 241.839 135.388C241.926 135.432 241.97 135.476 242.014 135.519C242.101 135.563 242.145 135.607 242.188 135.65C242.276 135.694 242.32 135.738 242.363 135.782C242.451 135.825 242.494 135.869 242.538 135.913C242.626 135.956 242.669 136 242.713 136.044C242.8 136.088 242.844 136.131 242.888 136.175C242.975 136.219 243.019 136.262 243.063 136.306C243.15 136.35 243.194 136.394 243.238 136.437C243.325 136.481 243.369 136.525 243.412 136.568C243.5 136.612 243.544 136.656 243.587 136.7C243.675 136.743 243.718 136.787 243.762 136.831C243.85 136.874 243.893 136.918 243.937 136.962C244.024 137.006 244.068 137.049 244.112 137.093C244.199 137.137 244.243 137.181 244.287 137.224C244.374 137.268 244.418 137.312 244.462 137.355C244.549 137.399 244.593 137.443 244.637 137.487C244.724 137.53 244.768 137.574 244.811 137.618C244.899 137.661 244.943 137.705 244.986 137.749C245.074 137.793 245.117 137.836 245.161 137.88C245.249 137.924 245.292 137.967 245.336 138.011C245.423 138.055 245.467 138.099 245.511 138.142C245.598 138.186 245.642 138.23 245.686 138.273C245.773 138.317 245.817 138.361 245.861 138.405C245.948 138.448 245.992 138.492 246.035 138.536C246.123 138.579 246.167 138.623 246.21 138.667C246.298 138.711 246.341 138.754 246.385 138.798C246.473 138.842 246.516 138.885 246.56 138.929C246.647 138.973 246.691 139.017 246.735 139.06C246.822 139.104 246.866 139.148 246.91 139.191C246.997 139.235 247.041 139.279 247.085 139.323C247.172 139.366 247.216 139.41 247.259 139.454C247.347 139.497 247.391 139.541 247.434 139.585C247.522 139.629 247.565 139.672 247.609 139.716C247.697 139.76 247.74 139.803 247.784 139.847C247.871 139.891 247.915 139.935 247.959 139.978C248.046 140.022 248.09 140.066 248.134 140.109C248.221 140.153 248.265 140.197 248.309 140.241C248.396 140.284 248.44 140.328 248.484 140.372C248.571 140.415 248.615 140.459 248.658 140.503C248.746 140.547 248.79 140.59 248.833 140.634C248.921 140.678 248.964 140.721 249.008 140.765C249.096 140.809 249.139 140.853 249.183 140.896C249.27 140.94 249.314 140.984 249.358 141.028C249.445 141.071 249.489 141.115 249.533 141.159C249.62 141.202 249.664 141.246 249.708 141.29C249.795 141.334 249.839 141.377 249.882 141.421C249.97 141.465 250.014 141.508 250.057 141.552C250.145 141.596 250.188 141.64 250.232 141.683C250.32 141.727 250.363 141.771 250.407 141.814C250.494 141.858 250.538 141.902 250.582 141.946C250.669 141.989 250.713 142.033 250.757 142.077C250.844 142.12 250.888 142.164 250.932 142.208C251.019 142.252 251.063 142.295 251.106 142.339C251.194 142.383 251.238 142.426 251.281 142.47C251.369 142.514 251.412 142.558 251.456 142.601C251.544 142.645 251.587 142.689 251.631 142.732C251.718 142.776 251.762 142.82 251.806 142.864C251.893 142.907 251.937 142.951 251.981 142.995C252.068 143.038 252.112 143.082 252.156 143.126C252.243 143.17 252.287 143.213 252.33 143.257C252.418 143.301 252.462 143.344 252.505 143.388C252.593 143.432 252.636 143.476 252.68 143.519C252.768 143.563 252.811 143.607 252.855 143.65C252.943 143.694 252.986 143.738 253.03 143.782C253.117 143.825 253.161 143.869 253.205 143.913C253.292 143.956 253.336 144 253.38 144.044C253.467 144.088 253.511 144.131 253.555 144.175C253.642 144.219 253.686 144.262 253.729 144.306C253.817 144.35 253.861 144.394 253.904 144.437C253.992 144.481 254.035 144.525 254.079 144.568C254.167 144.612 254.21 144.656 254.254 144.7C254.341 144.743 254.385 144.787 254.429 144.831C254.516 144.875 254.56 144.918 254.604 144.962C254.691 145.006 254.735 145.049 254.779 145.093C254.866 145.137 254.91 145.181 254.953 145.224C255.041 145.268 255.085 145.312 255.128 145.355C255.216 145.399 255.259 145.443 255.303 145.487C255.391 145.53 255.434 145.574 255.478 145.618C255.565 145.661 255.609 145.705 255.653 145.749C255.74 145.793 255.784 145.836 255.828 145.88C255.915 145.924 255.959 145.967 256.003 146.011C256.09 146.055 256.134 146.099 256.177 146.142C256.265 146.186 256.309 146.23 256.352 146.273C256.44 146.317 256.483 146.361 256.527 146.405C256.615 146.448 256.658 146.492 256.702 146.536C256.79 146.579 256.833 146.623 256.877 146.667C256.964 146.711 257.008 146.754 257.052 146.798C257.139 146.842 257.183 146.885 257.227 146.929C257.314 146.973 257.358 147.017 257.402 147.06C257.489 147.104 257.533 147.148 257.576 147.191C257.664 147.235 257.708 147.279 257.751 147.323C257.795 147.366 257.882 147.41 257.926 147.454C258.014 147.497 258.057 147.541 258.101 147.585C258.188 147.629 258.232 147.672 258.276 147.716C258.363 147.76 258.407 147.803 258.451 147.847C258.538 147.891 258.582 147.935 258.626 147.978C258.713 148.022 258.757 148.066 258.8 148.109C258.888 148.153 258.932 148.197 258.975 148.241C259.063 148.284 259.106 148.328 259.15 148.372C259.238 148.415 259.281 148.459 259.325 148.503C259.412 148.547 259.456 148.59 259.5 148.634C259.587 148.678 259.631 148.721 259.675 148.765C259.762 148.809 259.806 148.853 259.85 148.896C259.937 148.94 259.981 148.984 260.024 149.028C260.112 149.071 260.156 149.115 260.199 149.159C260.287 149.202 260.33 149.246 260.374 149.29C260.462 149.334 260.505 149.377 260.549 149.421C260.636 149.465 260.68 149.508 260.724 149.552C260.811 149.596 260.855 149.64 260.899 149.683C260.986 149.727 261.03 149.771 261.074 149.814C261.161 149.858 261.205 149.902 261.249 149.946C261.336 149.989 261.38 150.033 261.423 150.077C261.511 150.12 261.555 150.164 261.598 150.208C261.948 150.383 262.167 150.776 262.167 151.17V168.437C262.167 169.049 261.686 169.53 261.074 169.53C257.708 169.574 254.604 169.749 251.587 170.011C249.096 176.394 247.522 191.213 248.484 199.038C251.369 200.962 254.254 202.885 257.139 204.809C259.762 206.558 262.341 208.306 264.964 210.055C282.757 218.929 287.434 237.028 284.199 251.06C280.396 267.541 266.932 278.295 249.839 278.47C250.975 277.727 250.669 277.727 250.407 277.727ZM190.691 211.978C192.265 212.984 193.751 214.12 195.106 215.301C197.598 208.131 202.363 201.88 208.658 197.596C208.221 195.629 207.609 192 207.347 186.055C195.5 194.492 189.729 205.683 187.806 210.099C188.243 210.361 190.691 211.978 190.691 211.978Z" fill="#463899" style="fill:#463899;fill:color(display-p3 0.2745 0.2196 0.6000);fill-opacity:1;"/>
<path d="M186.495 123.497C196.724 123.497 206.56 124.197 209.839 127.257C214.473 130.361 219.107 133.465 223.697 136.525C231.26 135.475 236.943 135.344 239.041 135.344C239.609 135.344 239.959 135.344 239.959 135.344V135.475C240.09 135.475 240.134 135.475 240.134 135.475V135.607C240.265 135.607 240.309 135.607 240.309 135.607V135.738C240.44 135.738 240.484 135.738 240.484 135.738V135.869C240.615 135.869 240.658 135.869 240.658 135.869V136C240.79 136 240.833 136 240.833 136V136.131C240.964 136.131 241.008 136.131 241.008 136.131V136.262C241.139 136.262 241.183 136.262 241.183 136.262V136.393C241.314 136.393 241.358 136.393 241.358 136.393V136.525C241.489 136.525 241.533 136.525 241.533 136.525V136.656C241.664 136.656 241.708 136.656 241.708 136.656V136.787C241.839 136.787 241.882 136.787 241.882 136.787V136.918C242.014 136.918 242.057 136.918 242.057 136.918V137.049C242.188 137.049 242.232 137.049 242.232 137.049V137.18C242.363 137.18 242.407 137.18 242.407 137.18V137.312C242.538 137.312 242.582 137.312 242.582 137.312V137.443C242.713 137.443 242.757 137.443 242.757 137.443V137.574C242.888 137.574 242.932 137.574 242.932 137.574V137.705C243.063 137.705 243.107 137.705 243.107 137.705V137.836C243.238 137.836 243.281 137.836 243.281 137.836V137.967C243.413 137.967 243.456 137.967 243.456 137.967V138.098C243.587 138.098 243.631 138.098 243.631 138.098V138.23C243.762 138.23 243.806 138.23 243.806 138.23V138.361C243.937 138.361 243.981 138.361 243.981 138.361V138.492C244.112 138.492 244.156 138.492 244.156 138.492V138.623C244.287 138.623 244.331 138.623 244.331 138.623V138.754C244.462 138.754 244.505 138.754 244.505 138.754V138.885C244.637 138.885 244.68 138.885 244.68 138.885V139.016C244.811 139.016 244.855 139.016 244.855 139.016V139.148C244.986 139.148 245.03 139.148 245.03 139.148V139.279C245.161 139.279 245.205 139.279 245.205 139.279V139.41C245.336 139.41 245.38 139.41 245.38 139.41V139.541C245.511 139.541 245.555 139.541 245.555 139.541V139.672C245.686 139.672 245.729 139.672 245.729 139.672V139.803C245.861 139.803 245.904 139.803 245.904 139.803V139.934C246.035 139.934 246.079 139.934 246.079 139.934V140.066C246.21 140.066 246.254 140.066 246.254 140.066V140.197C246.385 140.197 246.429 140.197 246.429 140.197V140.328C246.56 140.328 246.604 140.328 246.604 140.328V140.459C246.735 140.459 246.779 140.459 246.779 140.459V140.59C246.91 140.59 246.954 140.59 246.954 140.59V140.721C247.085 140.721 247.128 140.721 247.128 140.721V140.853C247.26 140.853 247.303 140.853 247.303 140.853V140.984C247.434 140.984 247.478 140.984 247.478 140.984V141.115C247.609 141.115 247.653 141.115 247.653 141.115V141.246C247.784 141.246 247.828 141.246 247.828 141.246V141.377C247.959 141.377 248.003 141.377 248.003 141.377V141.508C248.134 141.508 248.178 141.508 248.178 141.508V141.639C248.309 141.639 248.352 141.639 248.352 141.639V141.771C248.484 141.771 248.527 141.771 248.527 141.771V141.902C248.658 141.902 248.702 141.902 248.702 141.902V142.033C248.833 142.033 248.877 142.033 248.877 142.033V142.164C249.008 142.164 249.052 142.164 249.052 142.164V142.295C249.183 142.295 249.227 142.295 249.227 142.295V142.426C249.358 142.426 249.402 142.426 249.402 142.426V142.557C249.533 142.557 249.576 142.557 249.576 142.557V142.689C249.708 142.689 249.751 142.689 249.751 142.689V142.82C249.882 142.82 249.926 142.82 249.926 142.82V142.951C250.057 142.951 250.101 142.951 250.101 142.951V143.082C250.232 143.082 250.276 143.082 250.276 143.082V143.213C250.407 143.213 250.451 143.213 250.451 143.213V143.344C250.582 143.344 250.626 143.344 250.626 143.344V143.475C250.757 143.475 250.801 143.475 250.801 143.475V143.607C250.932 143.607 250.975 143.607 250.975 143.607V143.738C251.107 143.738 251.15 143.738 251.15 143.738V143.869C251.281 143.869 251.325 143.869 251.325 143.869V144C251.456 144 251.5 144 251.5 144V144.131C251.631 144.131 251.675 144.131 251.675 144.131V144.262C251.806 144.262 251.85 144.262 251.85 144.262V144.393C251.981 144.393 252.025 144.393 252.025 144.393V144.525C252.156 144.525 252.199 144.525 252.199 144.525V144.656C252.331 144.656 252.374 144.656 252.374 144.656V144.787C252.505 144.787 252.549 144.787 252.549 144.787V144.918C252.68 144.918 252.724 144.918 252.724 144.918V145.049C252.855 145.049 252.899 145.049 252.899 145.049V145.18C253.03 145.18 253.074 145.18 253.074 145.18V145.312C253.205 145.312 253.249 145.312 253.249 145.312V145.443C253.38 145.443 253.423 145.443 253.423 145.443V145.574C253.555 145.574 253.598 145.574 253.598 145.574V145.705C253.729 145.705 253.773 145.705 253.773 145.705V145.836C253.904 145.836 253.948 145.836 253.948 145.836V145.967C254.079 145.967 254.123 145.967 254.123 145.967V146.098C254.254 146.098 254.298 146.098 254.298 146.098V146.23C254.429 146.23 254.473 146.23 254.473 146.23V146.361C254.604 146.361 254.648 146.361 254.648 146.361V146.492C254.779 146.492 254.822 146.492 254.822 146.492V146.623C254.954 146.623 254.997 146.623 254.997 146.623V146.754C255.128 146.754 255.172 146.754 255.172 146.754V146.885C255.303 146.885 255.347 146.885 255.347 146.885V147.016C255.478 147.016 255.522 147.016 255.522 147.016V147.148C255.653 147.148 255.697 147.148 255.697 147.148V147.279C255.828 147.279 255.872 147.279 255.872 147.279V147.41C256.003 147.41 256.046 147.41 256.046 147.41V147.541C256.178 147.541 256.221 147.541 256.221 147.541V147.672C256.352 147.672 256.396 147.672 256.396 147.672V147.803C256.527 147.803 256.571 147.803 256.571 147.803V147.934C256.702 147.934 256.746 147.934 256.746 147.934V148.066C256.877 148.066 256.921 148.066 256.921 148.066V148.197C257.052 148.197 257.096 148.197 257.096 148.197V148.328C257.227 148.328 257.27 148.328 257.27 148.328V148.459C257.402 148.459 257.445 148.459 257.445 148.459V148.59C257.576 148.59 257.62 148.59 257.62 148.59V148.721C257.751 148.721 257.795 148.721 257.795 148.721V148.853C257.926 148.853 257.97 148.853 257.97 148.853V148.984C258.101 148.984 258.145 148.984 258.145 148.984V149.115C258.276 149.115 258.32 149.115 258.32 149.115V149.246C258.451 149.246 258.495 149.246 258.495 149.246V149.377C258.626 149.377 258.669 149.377 258.669 149.377V149.508C258.801 149.508 258.844 149.508 258.844 149.508V149.639C258.975 149.639 259.019 149.639 259.019 149.639V149.771C259.15 149.771 259.194 149.771 259.194 149.771V149.902C259.325 149.902 259.369 149.902 259.369 149.902V150.033C259.5 150.033 259.544 150.033 259.544 150.033V150.164C259.675 150.164 259.719 150.164 259.719 150.164V150.295C259.85 150.295 259.893 150.295 259.893 150.295V150.426C260.025 150.426 260.068 150.426 260.068 150.426V150.557C260.199 150.557 260.243 150.557 260.243 150.557V150.689C260.374 150.689 260.418 150.689 260.418 150.689V150.82C260.549 150.82 260.593 150.82 260.593 150.82V150.951C260.724 150.951 260.768 150.951 260.768 150.951V151.082C260.899 151.082 260.943 151.082 260.943 151.082V151.213C261.074 151.213 261.117 151.213 261.117 151.213V168.481C257.576 168.525 254.21 168.7 250.888 169.049C248.134 175.344 246.342 191.65 247.522 199.738C253.161 203.541 258.801 207.301 264.484 211.06C297.008 227.235 287.172 277.115 249.926 277.421C249.664 277.421 249.358 277.421 249.096 277.421C238.473 277.421 230.385 271.563 222.167 265.88C215.915 261.421 209.052 257.792 203.369 252.634C199.566 267.716 184.484 277.421 169.445 277.421C162.888 277.421 156.374 275.585 150.822 271.519C143.391 266.536 135.959 261.596 128.527 256.612C101.861 239.825 112.615 195.803 144.309 193.53C142.997 191.344 162.363 163.366 179.675 152.743C169.926 144.306 158.429 139.76 159.915 123.76C161.008 123.891 162.495 123.934 164.287 123.934C169.839 123.934 178.276 123.497 186.495 123.497ZM195.587 217.268C197.948 209.312 203.063 202.492 209.882 198.077C209.402 196.197 208.615 191.956 208.352 184C194.407 193.224 188.199 206.208 186.451 210.448C187.675 211.279 188.899 212.066 190.079 212.896C192.046 214.208 193.926 215.65 195.587 217.268ZM186.495 121.312C181.948 121.312 177.314 121.443 173.249 121.574C169.926 121.661 166.779 121.749 164.287 121.749C162.407 121.749 161.052 121.705 160.134 121.574C160.046 121.574 159.959 121.574 159.872 121.574C159.391 121.574 158.866 121.749 158.473 122.055C158.035 122.404 157.729 122.973 157.686 123.541C157.074 130.317 158.604 135.869 162.363 140.503C165.686 144.568 170.232 147.497 175.041 150.601C175.697 150.995 176.309 151.432 176.964 151.825C171.981 155.322 164.112 162.011 154.538 174.033C151.26 178.142 148.331 182.295 146.232 185.661C144.877 187.847 144.09 189.421 143.653 190.601C136.396 191.475 129.795 194.536 124.505 199.475C119.26 204.372 115.5 210.842 113.664 218.142C111.828 225.486 112.09 232.962 114.451 239.781C116.986 247.169 121.882 253.333 128.571 257.53L150.779 272.393C156.418 276.503 163.325 278.689 170.669 278.689C178.582 278.689 186.538 276.153 193.096 271.563C198.954 267.454 203.325 261.858 205.686 255.563C208.833 258.098 212.243 260.284 215.566 262.426C217.751 263.825 219.981 265.268 222.123 266.798C222.123 266.798 222.123 266.798 222.167 266.798L222.997 267.366C231.041 272.962 239.391 278.732 250.363 278.732C250.669 278.732 250.932 278.732 251.238 278.732C260.331 278.645 268.549 275.716 274.932 270.208C280.702 265.268 284.855 258.23 286.648 250.492C288.484 242.536 287.784 234.098 284.637 226.798C281.183 218.798 275.063 212.372 266.888 208.262C264.352 206.557 261.773 204.853 259.238 203.148C256.44 201.268 253.686 199.432 250.888 197.552C250.101 190.12 251.5 176.525 253.729 170.186C256.527 169.967 259.413 169.792 262.473 169.792C263.653 169.792 264.615 168.787 264.615 167.607V150.426C264.615 149.639 264.178 148.94 263.566 148.547C263.522 148.503 263.434 148.459 263.391 148.415C263.347 148.372 263.26 148.328 263.216 148.284C263.172 148.24 263.085 148.197 263.041 148.153C262.997 148.109 262.91 148.066 262.866 148.022C262.822 147.978 262.735 147.934 262.691 147.891C262.648 147.847 262.56 147.803 262.516 147.76C262.473 147.716 262.385 147.672 262.342 147.628C262.298 147.585 262.21 147.541 262.167 147.497C262.123 147.454 262.035 147.41 261.992 147.366C261.948 147.322 261.861 147.279 261.817 147.235C261.773 147.191 261.686 147.148 261.642 147.104C261.598 147.06 261.511 147.016 261.467 146.973C261.423 146.929 261.336 146.885 261.292 146.842C261.249 146.798 261.161 146.754 261.117 146.71C261.074 146.667 260.986 146.623 260.943 146.579C260.899 146.536 260.811 146.492 260.768 146.448C260.724 146.404 260.637 146.361 260.593 146.317C260.549 146.273 260.462 146.23 260.418 146.186C260.374 146.142 260.287 146.098 260.243 146.055C260.199 146.011 260.112 145.967 260.068 145.924C260.025 145.88 259.937 145.836 259.893 145.792C259.85 145.749 259.762 145.705 259.719 145.661C259.675 145.618 259.587 145.574 259.544 145.53C259.5 145.486 259.413 145.443 259.369 145.399C259.325 145.355 259.238 145.312 259.194 145.268C259.15 145.224 259.063 145.18 259.019 145.137C258.975 145.093 258.888 145.049 258.844 145.006C258.801 144.962 258.713 144.918 258.669 144.874C258.626 144.831 258.538 144.787 258.495 144.743C258.451 144.7 258.363 144.656 258.32 144.612C258.276 144.568 258.188 144.525 258.145 144.481C258.101 144.437 258.014 144.393 257.97 144.35C257.926 144.306 257.839 144.262 257.795 144.219C257.751 144.175 257.664 144.131 257.62 144.087C257.576 144.044 257.489 144 257.445 143.956C257.402 143.913 257.314 143.869 257.27 143.825C257.227 143.781 257.139 143.738 257.096 143.694C257.052 143.65 256.964 143.607 256.921 143.563C256.877 143.519 256.79 143.475 256.746 143.432C256.702 143.388 256.615 143.344 256.571 143.301C256.527 143.257 256.44 143.213 256.396 143.169C256.352 143.126 256.265 143.082 256.221 143.038C256.178 142.995 256.09 142.951 256.046 142.907C256.003 142.863 255.915 142.82 255.872 142.776C255.828 142.732 255.74 142.689 255.697 142.645C255.653 142.601 255.566 142.557 255.522 142.514C255.478 142.47 255.391 142.426 255.347 142.383C255.303 142.339 255.216 142.295 255.172 142.251C255.128 142.208 255.041 142.164 254.997 142.12C254.954 142.077 254.866 142.033 254.822 141.989C254.779 141.945 254.691 141.902 254.648 141.858C254.604 141.814 254.516 141.771 254.473 141.727C254.429 141.683 254.342 141.639 254.298 141.596C254.254 141.552 254.167 141.508 254.123 141.465C254.079 141.421 253.992 141.377 253.948 141.333C253.904 141.29 253.817 141.246 253.773 141.202C253.729 141.159 253.642 141.115 253.598 141.071C253.555 141.027 253.467 140.984 253.423 140.94C253.38 140.896 253.292 140.853 253.249 140.809C253.205 140.765 253.117 140.721 253.074 140.678C253.03 140.634 252.943 140.59 252.899 140.546C252.855 140.503 252.768 140.459 252.724 140.415C252.68 140.372 252.593 140.328 252.549 140.284C252.505 140.24 252.418 140.197 252.374 140.153C252.331 140.109 252.243 140.066 252.199 140.022C252.156 139.978 252.068 139.934 252.025 139.891C251.981 139.847 251.893 139.803 251.85 139.76C251.806 139.716 251.719 139.672 251.675 139.628C251.631 139.585 251.544 139.541 251.5 139.497C251.456 139.454 251.369 139.41 251.325 139.366C251.281 139.322 251.194 139.279 251.15 139.235C251.107 139.191 251.019 139.148 250.975 139.104C250.932 139.06 250.844 139.016 250.801 138.973C250.757 138.929 250.669 138.885 250.626 138.842C250.582 138.798 250.495 138.754 250.451 138.71C250.407 138.667 250.32 138.623 250.276 138.579C250.232 138.536 250.145 138.492 250.101 138.448C250.057 138.404 249.97 138.361 249.926 138.317C249.882 138.273 249.795 138.23 249.751 138.186C249.708 138.142 249.62 138.098 249.576 138.055C249.533 138.011 249.445 137.967 249.402 137.924C249.358 137.88 249.27 137.836 249.227 137.792C249.183 137.749 249.096 137.705 249.052 137.661C249.008 137.618 248.921 137.574 248.877 137.53C248.833 137.486 248.746 137.443 248.702 137.399C248.658 137.355 248.571 137.312 248.527 137.268C248.484 137.224 248.396 137.18 248.352 137.137C248.309 137.093 248.221 137.049 248.178 137.006C248.134 136.962 248.046 136.918 248.003 136.874C247.959 136.831 247.872 136.787 247.828 136.743C247.784 136.7 247.697 136.656 247.653 136.612C247.609 136.568 247.522 136.525 247.478 136.481C247.434 136.437 247.347 136.393 247.303 136.35C247.26 136.306 247.172 136.262 247.128 136.219C247.085 136.175 246.997 136.131 246.954 136.087C246.91 136.044 246.822 136 246.779 135.956C246.735 135.913 246.648 135.869 246.604 135.825C246.56 135.781 246.473 135.738 246.429 135.694C246.385 135.65 246.298 135.607 246.254 135.563C246.21 135.519 246.123 135.475 246.079 135.432C246.035 135.388 245.948 135.344 245.904 135.301C245.861 135.257 245.773 135.213 245.729 135.169C245.686 135.126 245.598 135.082 245.555 135.038C245.511 134.995 245.423 134.951 245.38 134.907C245.336 134.863 245.249 134.82 245.205 134.776C245.161 134.732 245.074 134.689 245.03 134.645C244.986 134.601 244.899 134.557 244.855 134.514C244.811 134.47 244.724 134.426 244.68 134.383C244.637 134.339 244.549 134.295 244.505 134.251C244.462 134.208 244.374 134.164 244.331 134.12C244.287 134.077 244.199 134.033 244.156 133.989C244.112 133.945 244.025 133.902 243.981 133.858C243.937 133.814 243.85 133.771 243.806 133.727C243.762 133.683 243.675 133.639 243.631 133.596C243.587 133.552 243.5 133.508 243.456 133.465C243.413 133.421 243.325 133.377 243.281 133.333C243.238 133.29 243.15 133.246 243.107 133.202C243.063 133.159 242.975 133.115 242.932 133.071C242.888 133.027 242.801 132.984 242.757 132.94C242.713 132.896 242.626 132.853 242.582 132.809C242.232 132.547 241.795 132.372 241.358 132.372C241.358 132.372 241.008 132.372 240.396 132.372C238.342 132.372 232.833 132.459 225.576 133.465C223.128 131.847 220.68 130.186 218.276 128.568C216.352 127.301 214.473 125.989 212.549 124.721C207.872 122.623 200.265 121.312 186.495 121.312ZM189.161 209.661C191.26 205.159 196.462 195.716 206.341 188.109C206.604 192.35 207.041 195.279 207.434 197.115C201.664 201.224 197.205 206.951 194.582 213.465C193.533 212.634 192.44 211.803 191.26 211.06C190.779 210.71 190.254 210.404 189.729 210.055C189.555 209.924 189.38 209.792 189.161 209.661Z" fill="#463899" style="fill:#463899;fill:color(display-p3 0.2745 0.2196 0.6000);fill-opacity:1;"/>
<path d="M232.046 192.349C231.697 192.349 231.391 192.349 231.041 192.349C230.473 190.076 228.855 182.557 229.467 171.147C229.904 163.497 231.566 157.158 233.008 153.005C236.331 152.699 239.74 152.524 243.238 152.437V135.169C243.238 135.169 233.708 134.907 220.855 137.355C218.232 129.355 210.713 123.584 201.839 123.584H163.194V127.038C163.194 137.967 172.025 146.798 182.954 146.798H192.702C187.063 149.683 181.555 153.268 176.484 157.727C156.025 175.781 150.429 187.803 148.943 192.481C131.456 194.186 117.817 208.918 117.817 226.841C117.817 245.901 133.292 261.377 152.352 261.377C171.413 261.377 186.888 245.901 186.888 226.841C186.888 213.027 178.801 201.136 167.085 195.584C168.658 191.606 175.216 177.355 190.604 167.825C198.385 163.016 205.729 159.519 213.074 157.115C212.374 161.53 211.544 168.962 211.544 178.492C211.544 189.945 212.593 195.584 213.161 197.901C203.719 204.065 197.467 214.732 197.467 226.841C197.467 245.901 212.943 261.377 232.003 261.377C251.063 261.377 266.538 245.901 266.538 226.841C266.626 207.825 251.15 192.349 232.046 192.349Z" fill="white" style="fill:white;fill-opacity:1;"/>
</svg>
